<?xml version="1.0" encoding="UTF-8"?>
<svg data-bbox="1.257 0 2046.743 1279" preserveAspectRatio="none" viewBox="1.26 -0.11 2046.74 1279.21" height="230" width="368" xmlns="http://www.w3.org/2000/svg" display="block" data-type="ugc">
    <g>
        <path d="M578.965 639.89c1.8-11.829 9.992-25.606 13.74-37.22 7-21.693 13.694-43.299 19.41-65.347a788 788 0 0 0 13.602-60.479c1.687-9.04 7.453-52.725 9.749-57.433 5.311-2.869 144.272 45.898 161.01 51.817 65.055 23.004 131.409 45.827 194.469 74.004 12.615 5.645 21.845 15.112 32.665 20.159 28.78-20.39 107.13-49.225 141.77-61.702a7990 7990 0 0 1 168.45-58.306l50.27-16.771c8.28-2.78 22.06-6.983 29.37-10.988a1529 1529 0 0 0 25.16 134.922 2069 2069 0 0 0 12.32 48.394c3.53 13.016 8.44 28.555 9.87 41.75-33.15.922-71.56 9.779-103.78 19.937-123.68 38.988-236.03 116.074-296.21 233.697-14.98 29.28-25.99 71.442-32.66 103.32l-5.35.456c-14.49-99.74-79.508-194.91-159.752-254.147-10.532-7.774-22.216-14.959-33.332-21.954a548.2 548.2 0 0 0-203.69-78.17c-14.546-2.567-32.247-4.227-47.081-5.939" fill="rgba(254, 254, 254, 1)"/>
        <path d="M194.71 813.555c13.137 3.961 46.849 9.195 62.257 12.569a1971 1971 0 0 1 119.74 31.108 1260.7 1260.7 0 0 1 473.128 270.408c22.553 20.39 51.407 50.82 73.159 73.01-2.409 3.13-1.893 2.71-6.648 3.88-17.749-16.77-62.584-42.8-83.242-56.7-51.126-34.41-110.456-58.22-167.182-81.6-18.451-7.61-40.6-13.29-59.518-20.59-135.236-51.135-279.676-78.06-423.715-87.169-28.526-1.804-62.194-.333-91.428-.474 22.902-46.804 61.919-99.867 96.417-139.81 1.206-1.396 5.274-3.671 7.032-4.632" fill="rgba(254, 254, 254, 1)"/>
        <path d="M1858.48 815.108c36 35.295 77.09 94.659 97.17 140.621-43.89-2.525-103.24 1.962-147.02 6.104a1406.8 1406.8 0 0 0-390.67 91.147c-42.4 16.11-93.71 36.96-134.23 57.65a981.3 981.3 0 0 0-157.11 101.97c-.97-.76-1.62-1.43-2.52-2.29.96-2.04 1.89-4.1 2.79-6.16 13.11-17.21 27.6-30.23 43.22-45.14 33.69-32.16 64.49-60.88 101.09-90.01 60.23-47.93 127.03-85.449 194.04-123.015 9.14-5.128 18.6-10.251 27.92-14.938a1227.3 1227.3 0 0 1 365.32-115.939" fill="rgba(254, 254, 254, 1)"/>
        <path d="M1704.13 648.886c15.96 4.969 93.35 78.732 110.49 94.387-10.41 6.039-31.77 9.773-44.18 12.696a1453 1453 0 0 0-44.14 11.149 1381 1381 0 0 0-82.8 26.102c-193.64 66.947-400.05 197.503-531.29 356.23-16.21 19-30.54 38.6-45.78 58.31-.74.96-1.61 1.17-2.71 1.47l-.92-1.22c-.3-10.27 30.04-54.28 36.56-66.5 13.03-24.39 33.28-48.69 47.99-72.42 3.28-5.29 7.97-12.18 11.72-17.16a1068 1068 0 0 1 91.19-104.81c106.95-109.576 226.73-189.867 363.43-258.314 30.28-15.164 60.51-25.925 90.44-39.92" fill="rgba(254, 254, 254, 1)"/>
        <path d="M922.994 1200.65c8.942 7.61 14.921 14.19 20.487 24.53-9.874-6.14-18.099-13.36-27.135-20.65 4.755-1.17 4.239-.75 6.648-3.88" fill="rgba(160, 224, 182, 1)"/>
        <path d="M1126.89 1204.15c-.9 2.06-1.83 4.12-2.79 6.16.9.86 1.55 1.53 2.52 2.29-4.73 5.14-13.32 12.63-18.76 17.03 4.56-12.42 9.47-16.49 19.03-25.48" fill="rgba(160, 224, 182, 1)"/>
        <path d="m1022.82 1000.1 5.35-.456c-.26 5.596-.36 10.526-2.77 15.616l-1.14-.11c-1.76-4.01-1.39-10.45-1.44-15.05" fill="rgba(160, 224, 182, 1)"/>
        <path d="M1020.37 0h7.79c1.52 1.464 4.14 3.838 6.05 4.54 40.84 14.946 84.86 27.806 125.77 41.965a18001 18001 0 0 0 371.78 121.998 5503 5503 0 0 1 146.38 46.892c18.45 6.147 52.86 16.562 68.4 24.669-22.96 6.848-45.81 14.903-68.66 22.255l-252.39 83.446a9085 9085 0 0 0-263.73 88.464c-43.3 15.204-97.16 32.984-138.61 51.014-9.36-2.827-17.2-8.09-26.348-11.226-106.659-36.577-212.585-74.815-319.957-109.398-17.304-5.573-34.664-9.747-50.683-18.414 11.555-4.589 23.394-8.171 35.065-12.4 85.353-30.929 170.868-60.718 257.274-88.556 14.411-4.643 28.93-9.252 42.78-15.355.192-3.736-2.449-5.419-4.991-7.541-4.556 1.396-9.742 2.26-14.446 3.074-39.583 6.856-78.053 15.924-116.991 25.679a10416 10416 0 0 0-123.128 31.699c-50.377 13.787-96.761 27.714-147.841 40.427-8.236-3.351-17.284-5.616-25.802-8.429l-50.776-17.294c-.669.803-4.909 5.743-4.885 6.016 3.621 40.007-5.924 81.926.115 121.746 1.404 9.254 23.772 22.173 25.573 36.906 2 16.355-5.776 24.375-13.983 37.384 4.062 33.81 30.561 78.625 41.054 111.785 5.539 17.503 18.85 35.689 29.3 50.696a622 622 0 0 0 52.485 65.983c23.778 25.71 51.875 51.498 76.42 76.969a3647 3647 0 0 1 139.836 153.664 1233.8 1233.8 0 0 1 153.72 232.042c-13.901-9.77-24.879-27.62-36.002-40.64-95.13-111.35-216.674-204.687-345.192-274.444-12.445-8.202-24.17-13.685-37.463-19.922-85.804-40.265-173.939-74.393-266.247-96.531-14.868-3.565-42.016-7.994-55.518-13.64l-1.113-.477.369-.412c10.737-11.808 22.647-21.461 34.328-32.29 25.412-23.558 52.869-43.496 81.226-63.319 7.099 2.056 11.802 4.162 18.529 7.09 44.046-31.908 67.558-104.104 79.683-154.711a507 507 0 0 1-8.595-9.477c-11.595-13.212-9.234-25.366-8.15-42.105 7.614-9.601 14.666-13.203 25.165-18.564-2.532-42.752-.06-95.121-1.045-139.224-6.273-3.268-21.656-7.419-29.18-9.884a5838 5838 0 0 0-70.056-23.042c-7.86-2.485-49.494-14.036-51.137-19.204 6.154-6.952 164.753-56.27 187.663-63.928L883.66 46.044l93.792-30.235C990.163 11.685 1010.33 7.567 1020.37 0" fill="rgba(254, 254, 254, 1)"/>
        <path d="M956.29 222.353c14.701-3.53 30.451-5.829 45.42-8.293-7.259 5.392-31.925 15.021-40.429 15.834.192-3.736-2.449-5.419-4.991-7.541" fill="rgba(58, 154, 115, 1)"/>
        <path d="M1123.53 1263.14c110.31-70.89 234.05-124.01 359.14-162.86a1491.2 1491.2 0 0 1 373.13-63.76c10.55-.45 21.08-1.58 31.6-1.96 34.8-1.25 69.64-.39 104.34 2.6 20.05 29.59 44.19 123.16 56.26 161.19v5.63c-16.3-2.73-32.64-6.61-49.04-9.58-34.96-6.6-70.16-11.84-105.52-15.71a1725.2 1725.2 0 0 0-455.17 11.69c-16.35 2.45-32.8 4.73-49.21 7.48-74.87 12.51-147.86 33.16-220.06 56.33-14.19 4.56-27.89 10.12-42.02 14.67-2.35-2.08-2.34-2.65-3.45-5.72" fill="rgba(254, 254, 254, 1)"/>
        <path d="M58.637 1034.58c11.983-1.16 29.217-.3 41.675-.57 30.131-.65 58.331.55 88.292 2.05a1541.1 1541.1 0 0 1 586.788 144.53c19.897 9.37 36.8 14.67 55.642 26.96 20.74 13.52 45.147 23.55 66.187 36.71 12.807 8.01 26.647 14.29 38.606 23.57l-1.855 1.48c-2.512-.38-4.82-.9-7.337-.67-10.283-1.8-30.503-10.22-41.699-13.9-68.413-22.51-140.7-41.1-211.409-55.03a1755.5 1755.5 0 0 0-238.664-29.37c-25.646-1.21-51.599-.6-77.469-2.86-14.676-.29-30.074 2.12-44.622 2.26-84.854.83-170.071 8.69-253.649 23.44-17.624 3.11-35.276 8.06-52.913 9.52-2.405.19-3.705-1.18-4.953-2.82 6.11-7.17 12.116-42.76 15.755-54.38 8.2-26.18 26.029-90.51 41.625-110.92" fill="rgba(254, 254, 254, 1)"/>
        <path d="M1102.62 1279c7.65-8.96 10.76-10.33 20.91-15.86 1.11 3.07 1.1 3.64 3.45 5.72-7.44 2.86-14.4 4.65-19.97 10.14z" fill="rgba(160, 224, 182, 1)"/>
        <path d="M935.827 1267.83c5.869 3.78 10.581 7.04 16.197 11.17h-8.274c-5.288-5.21-10.509-7.37-17.115-10.36 2.517-.23 4.825.29 7.337.67z" fill="rgba(160, 224, 182, 1)"/>
    </g>
</svg>
